<svg xmlns="http://www.w3.org/2000/svg" viewBox="0 0 100 100">
  <defs>
    <linearGradient id="bgA4" x1="0%" y1="0%" x2="100%" y2="100%">
      <stop offset="0%" style="stop-color:#d1d4f9;stop-opacity:1" />
      <stop offset="100%" style="stop-color:#836fff;stop-opacity:1" />
    </linearGradient>
  </defs>
  <circle cx="50" cy="50" r="50" fill="url(#bgA4)"/>
  <!-- 脸部 -->
  <ellipse cx="50" cy="55" rx="28" ry="32" fill="#ffe4c4"/>
  <!-- 头发 - 科学短发 -->
  <path d="M24 45 Q26 22 50 20 Q74 22 76 45 L73 35 Q68 28 50 27 Q32 28 27 35 Z" 
        fill="#696969"/>
  <!-- 眼镜 - 护目镜风格 -->
  <rect x="28" y="48" width="44" height="12" rx="6" fill="none" stroke="#2d2d2d" stroke-width="3"/>
  <rect x="30" y="50" width="18" height="8" rx="4" fill="#87ceeb" opacity="0.6"/>
  <rect x="52" y="50" width="18" height="8" rx="4" fill="#87ceeb" opacity="0.6"/>
  <line x1="50" y1="54" x2="50" y2="54" stroke="#2d2d2d" stroke-width="2"/>
  <!-- 眼睛 -->
  <ellipse cx="39" cy="54" rx="3" ry="3" fill="#4a3728"/>
  <ellipse cx="61" cy="54" rx="3" ry="3" fill="#4a3728"/>
  <!-- 眉毛 -->
  <path d="M32 44 Q39 42 46 44" fill="none" stroke="#696969" stroke-width="2" stroke-linecap="round"/>
  <path d="M54 44 Q61 42 68 44" fill="none" stroke="#696969" stroke-width="2" stroke-linecap="round"/>
  <!-- 鼻子 -->
  <path d="M50 60 L49 68 Q50 70 51 68" fill="none" stroke="#d2b48c" stroke-width="2"/>
  <!-- 嘴巴 -->
  <path d="M42 76 Q50 79 58 76" fill="none" stroke="#8b0000" stroke-width="2" stroke-linecap="round"/>
  <!-- 白大褂领子 -->
  <path d="M30 85 L40 80 L50 88 L60 80 L70 85 L70 100 L30 100 Z" fill="#f5f5f5"/>
  <line x1="50" y1="88" x2="50" y2="100" stroke="#e0e0e0" stroke-width="1"/>
  <!-- 口袋笔 -->
  <rect x="38" y="90" width="3" height="8" rx="1" fill="#4169e1"/>
</svg>
