<svg xmlns="http://www.w3.org/2000/svg" viewBox="0 0 100 100">
  <defs>
    <linearGradient id="bgA5" x1="0%" y1="0%" x2="100%" y2="100%">
      <stop offset="0%" style="stop-color:#ffd5dc;stop-opacity:1" />
      <stop offset="100%" style="stop-color:#ff99aa;stop-opacity:1" />
    </linearGradient>
  </defs>
  <circle cx="50" cy="50" r="50" fill="url(#bgA5)"/>
  <!-- 脸部 -->
  <ellipse cx="50" cy="55" rx="28" ry="32" fill="#ffd4a8"/>
  <!-- 头发 - 旅行家帽子+马尾 -->
  <path d="M22 50 Q24 25 50 22 Q76 25 78 50 L76 40 Q70 30 50 28 Q30 30 24 40 Z" 
        fill="#8b4513"/>
  <!-- 马尾 -->
  <ellipse cx="78" cy="55" rx="8" ry="20" fill="#8b4513"/>
  <!-- 帽子 -->
  <ellipse cx="50" cy="28" rx="30" ry="6" fill="#d2691e"/>
  <ellipse cx="50" cy="25" rx="20" ry="10" fill="#cd853f"/>
  <rect x="35" y="20" width="30" height="3" fill="#8b4513"/>
  <!-- 眼睛 -->
  <ellipse cx="40" cy="55" rx="4" ry="5" fill="#2d1f14"/>
  <ellipse cx="60" cy="55" rx="4" ry="5" fill="#2d1f14"/>
  <circle cx="41" cy="54" r="1.5" fill="#ffffff"/>
  <circle cx="61" cy="54" r="1.5" fill="#ffffff"/>
  <!-- 睫毛 -->
  <path d="M36 51 L34 48" stroke="#8b4513" stroke-width="1.5"/>
  <path d="M40 50 L40 47" stroke="#8b4513" stroke-width="1.5"/>
  <path d="M44 51 L46 48" stroke="#8b4513" stroke-width="1.5"/>
  <path d="M56 51 L54 48" stroke="#8b4513" stroke-width="1.5"/>
  <path d="M60 50 L60 47" stroke="#8b4513" stroke-width="1.5"/>
  <path d="M64 51 L66 48" stroke="#8b4513" stroke-width="1.5"/>
  <!-- 眉毛 -->
  <path d="M32 46 Q40 44 48 46" fill="none" stroke="#8b4513" stroke-width="2" stroke-linecap="round"/>
  <path d="M52 46 Q60 44 68 46" fill="none" stroke="#8b4513" stroke-width="2" stroke-linecap="round"/>
  <!-- 鼻子 -->
  <path d="M50 57 L48 67 Q50 69 52 67" fill="none" stroke="#e8b987" stroke-width="2"/>
  <!-- 嘴巴 - 开心笑 -->
  <path d="M40 72 Q50 82 60 72" fill="#dc143c" stroke="#8b0000" stroke-width="1.5"/>
  <path d="M42 73 Q50 78 58 73" fill="#ffffff" opacity="0.6"/>
  <!-- 腮红 -->
  <ellipse cx="30" cy="65" rx="7" ry="5" fill="#ffb6c1" opacity="0.6"/>
  <ellipse cx="70" cy="65" rx="7" ry="5" fill="#ffb6c1" opacity="0.6"/>
  <!-- 背包带 -->
  <rect x="72" y="70" width="6" height="30" rx="3" fill="#8b4513" opacity="0.7"/>
</svg>
