<svg xmlns="http://www.w3.org/2000/svg" viewBox="0 0 400 300">
  <defs>
    <linearGradient id="bg6" x1="0%" y1="0%" x2="100%" y2="100%">
      <stop offset="0%" style="stop-color:#4a2c0a;stop-opacity:1" />
      <stop offset="50%" style="stop-color:#2d1b0a;stop-opacity:1" />
      <stop offset="100%" style="stop-color:#1a0f05;stop-opacity:1" />
    </linearGradient>
    <linearGradient id="sand1" x1="0%" y1="0%" x2="100%" y2="0%">
      <stop offset="0%" style="stop-color:#d4a574;stop-opacity:0.6" />
      <stop offset="50%" style="stop-color:#c4956a;stop-opacity:0.4" />
      <stop offset="100%" style="stop-color:#b8865a;stop-opacity:0.6" />
    </linearGradient>
  </defs>
  <rect width="400" height="300" fill="url(#bg6)"/>
  <!-- 沙丘 -->
  <path d="M0 220 Q100 200 200 210 Q300 220 400 200 L400 300 L0 300 Z" 
        fill="url(#sand1)"/>
  <!-- 骆驼商队 -->
  <path d="M100 200 L105 180 L110 170 L120 170 L125 180 L130 200 Z" 
        fill="#8b4513" opacity="0.7"/>
  <path d="M105 170 L108 160 L115 160 L118 170" 
        fill="#8b4513" opacity="0.7"/>
  <circle cx="111" cy="155" r="5" fill="#8b4513" opacity="0.7"/>
  <path d="M130 200 L135 180 L140 175 L150 175 L155 180 L160 200 Z" 
        fill="#a0522d" opacity="0.6"/>
  <path d="M135 175 L138 165 L145 165 L148 175" 
        fill="#a0522d" opacity="0.6"/>
  <circle cx="141" cy="160" r="5" fill="#a0522d" opacity="0.6"/>
  <!-- 人物 -->
  <circle cx="180" cy="180" r="8" fill="#deb887" opacity="0.8"/>
  <path d="M175 190 L172 210 L178 210 L180 195 L182 210 L188 210 L185 190 Z" 
        fill="#4a3728" opacity="0.7"/>
  <!-- 远处建筑剪影 -->
  <path d="M280 160 L285 140 L290 160 L295 135 L300 160 L305 145 L310 160 Z" 
        fill="#d4af37" opacity="0.3"/>
  <rect x="285" y="160" width="20" height="40" fill="#d4af37" opacity="0.2"/>
  <!-- 太阳 -->
  <circle cx="320" cy="80" r="25" fill="#ff6b35" opacity="0.8"/>
  <circle cx="320" cy="80" r="35" fill="#ff6b35" opacity="0.3"/>
  <!-- 丝绸飘带 -->
  <path d="M50 100 Q80 80 100 100 Q120 120 150 100 Q180 80 200 100" 
        fill="none" stroke="#d4af37" stroke-width="3" opacity="0.6"/>
  <path d="M60 120 Q90 100 110 120 Q130 140 160 120 Q190 100 210 120" 
        fill="none" stroke="#e8c85a" stroke-width="2" opacity="0.5"/>
  <text x="200" y="280" text-anchor="middle" fill="#c4956a" font-size="12" font-family="serif">
    丝路遗珍
  </text>
  <!-- 飞沙粒子 -->
  <circle cx="80" cy="240" r="1" fill="#d4a574" opacity="0.6"/>
  <circle cx="200" cy="250" r="1.5" fill="#c4956a" opacity="0.5"/>
  <circle cx="350" cy="240" r="1" fill="#d4a574" opacity="0.4"/>
  <circle cx="150" cy="260" r="1" fill="#c4956a" opacity="0.3"/>
</svg>
